# © Olivier Pons / HQF Development - 2022-03-20 15:13:26
mtllib model.mtl
vn 0 0 1
# Full face: pRef = 0
# x=0.00, y=0.00, z=0.00, offX=0.00, offY=0.00, rotZ=0.00
# x=0.00, y=0.00, z=0.00, offX=0.00, offY=0.00, rotZ=0.00
v -0.450000 -0.450000 0.550000
v -0.450000 0.450000 0.550000
v 0.450000 0.450000 0.550000
v 0.450000 -0.450000 0.550000

# Inner square:
g InnerSquare0
usemtl Orange
f 1//1 2//1 3//1 4//1
v -0.500000 -0.500000 0.500000
v -0.500000 0.500000 0.500000
v 0.500000 0.500000 0.500000
v 0.500000 -0.500000 0.500000

# Outer square:
g OuterSquare0
usemtl Green
f 1//1 2//1 6//1 5//1
f 2//1 3//1 7//1 6//1
f 3//1 4//1 8//1 7//1
f 1//1 5//1 8//1 4//1
v 0.050000 0.000000 0.600000
v 0.048907 0.010396 0.600000
v 0.045677 0.020337 0.600000
v 0.040451 0.029389 0.600000
v 0.033457 0.037157 0.600000
v 0.025000 0.043301 0.600000
v 0.015451 0.047553 0.600000
v 0.005226 0.049726 0.600000
v -0.005226 0.049726 0.600000
v -0.015451 0.047553 0.600000
v -0.025000 0.043301 0.600000
v -0.033457 0.037157 0.600000
v -0.040451 0.029389 0.600000
v -0.045677 0.020337 0.600000
v -0.048907 0.010396 0.600000
v -0.050000 0.000000 0.600000
v -0.048907 -0.010396 0.600000
v -0.045677 -0.020337 0.600000
v -0.040451 -0.029389 0.600000
v -0.033457 -0.037157 0.600000
v -0.025000 -0.043301 0.600000
v -0.015451 -0.047553 0.600000
v -0.005226 -0.049726 0.600000
v 0.005226 -0.049726 0.600000
v 0.015451 -0.047553 0.600000
v 0.025000 -0.043301 0.600000
v 0.033457 -0.037157 0.600000
v 0.040451 -0.029389 0.600000
v 0.045677 -0.020337 0.600000
v 0.048907 -0.010396 0.600000
v 0.060000 0.000000 0.600000
v 0.058689 0.012475 0.600000
v 0.054813 0.024404 0.600000
v 0.048541 0.035267 0.600000
v 0.040148 0.044589 0.600000
v 0.030000 0.051962 0.600000
v 0.018541 0.057063 0.600000
v 0.006272 0.059671 0.600000
v -0.006272 0.059671 0.600000
v -0.018541 0.057063 0.600000
v -0.030000 0.051962 0.600000
v -0.040148 0.044589 0.600000
v -0.048541 0.035267 0.600000
v -0.054813 0.024404 0.600000
v -0.058689 0.012475 0.600000
v -0.060000 0.000000 0.600000
v -0.058689 -0.012475 0.600000
v -0.054813 -0.024404 0.600000
v -0.048541 -0.035267 0.600000
v -0.040148 -0.044589 0.600000
v -0.030000 -0.051962 0.600000
v -0.018541 -0.057063 0.600000
v -0.006272 -0.059671 0.600000
v 0.006272 -0.059671 0.600000
v 0.018541 -0.057063 0.600000
v 0.030000 -0.051962 0.600000
v 0.040148 -0.044589 0.600000
v 0.048541 -0.035267 0.600000
v 0.054813 -0.024404 0.600000
v 0.058689 -0.012475 0.600000

# Linking inner to outer:
g Circle8
usemtl Purple
f 10//1 9//1 39//1 40//1
f 11//1 10//1 40//1 41//1
f 12//1 11//1 41//1 42//1
f 13//1 12//1 42//1 43//1
f 14//1 13//1 43//1 44//1
f 15//1 14//1 44//1 45//1
f 16//1 15//1 45//1 46//1
f 17//1 16//1 46//1 47//1
f 18//1 17//1 47//1 48//1
f 19//1 18//1 48//1 49//1
f 20//1 19//1 49//1 50//1
f 21//1 20//1 50//1 51//1
f 22//1 21//1 51//1 52//1
f 23//1 22//1 52//1 53//1
f 24//1 23//1 53//1 54//1
f 25//1 24//1 54//1 55//1
f 26//1 25//1 55//1 56//1
f 27//1 26//1 56//1 57//1
f 28//1 27//1 57//1 58//1
f 29//1 28//1 58//1 59//1
f 30//1 29//1 59//1 60//1
f 31//1 30//1 60//1 61//1
f 32//1 31//1 61//1 62//1
f 33//1 32//1 62//1 63//1
f 34//1 33//1 63//1 64//1
f 35//1 34//1 64//1 65//1
f 36//1 35//1 65//1 66//1
f 37//1 36//1 66//1 67//1
f 38//1 37//1 67//1 68//1
f 9//1 38//1 68//1 39//1
